<svg xmlns="http://www.w3.org/2000/svg" aria-hidden="true" overflow="hidden" style="position:absolute;width:0;height:0">
  <defs>
    <symbol id="diagram" viewBox="0 0 32 32">
      <path fill="var(--color1, #4d5ae5)" d="M14.93 14.96h1.06v4.8h-1.06v-4.8zm4.25 2.14h1.07v2.66h-1.07v-2.67zm-8.52 1.6h1.06v1.06h-1.06V18.7zm-3.2-.54h1.06v1.6H7.46v-1.6z"/>
      <path fill="var(--color2, #2e2f42)" d="M1.6 28.29h25.59a1.6 1.6 0 0 0 1.59-1.6v-2.14a1.6 1.6 0 0 0-1.6-1.59h-.53V9.66l3.03-2.86a1.6 1.6 0 1 0-.75-.76L26.65 8.2V6.96c0-.88-.72-1.6-1.6-1.6H3.73c-.89 0-1.6.72-1.6 1.6v15.99h-.54c-.88 0-1.59.71-1.59 1.6v2.13c0 .88.71 1.6 1.6 1.6zM30.38 4.84c.3 0 .54.24.54.53a.53.53 0 0 1-1.07 0c0-.3.23-.53.53-.53zM3.2 6.97c0-.3.24-.53.53-.53h21.32c.3 0 .54.23.54.52v2.25l-1.07 1.01V8.03a.53.53 0 0 0-.54-.53H4.8a.53.53 0 0 0-.53.53v13.33c0 .3.24.53.53.53H24c.29 0 .53-.23.53-.53v-9.68l1.06-1v12.28H3.2v-16zM8 13.88a1.6 1.6 0 1 0 1.1 2.75l1.85.93c.22.11.48.06.64-.12l3.94-4.43 3.87 2.9c.21.15.5.14.69-.04l3.36-3.19v8.14H5.33V8.57h18.12v2.66l-3.77 3.57-3.9-2.93a.53.53 0 0 0-.72.07l-4 4.5-1.49-.75a1.6 1.6 0 0 0-1.58-1.8zm.53 1.6a.53.53 0 1 1-1.07 0 .54.54 0 0 1 1.07 0zm3.2 8.53h5.32v.53c0 .3-.24.54-.53.54h-4.26a.54.54 0 0 1-.54-.54v-.53zm-10.67.54c0-.3.24-.53.53-.53h9.07v.52c0 .89.71 1.6 1.6 1.6h4.26c.88 0 1.6-.71 1.6-1.6v-.53h9.06c.3 0 .53.24.53.53v2.14c0 .3-.23.53-.53.53H1.6a.53.53 0 0 1-.53-.53v-2.14z"/>
    </symbol>
    <symbol id="clock" viewBox="0 0 32 32">
      <path fill="var(--color2, #2e2f42)" d="M31.3 15.3a15.3 15.3 0 1 0-19.78 14.61.65.65 0 0 0 .63-.45L16 17.21a1.91 1.91 0 1 0-.84-3.64l-5.1-5.1a.63.63 0 0 0-.9.01.63.63 0 0 0 0 .89l5.1 5.11c-.4.8-.17 1.76.54 2.31l-3.69 11.67a14.04 14.04 0 1 1 10.57-.35l-.4-1.88a.64.64 0 0 0-.75-.49.73.73 0 0 0-.3.16l-3.83 3.42a.63.63 0 0 0 .23 1.08l4.9 1.56a.63.63 0 0 0 .82-.74l-.4-1.83A15.26 15.26 0 0 0 31.3 15.3zm-15.31-.64a.64.64 0 1 1 0 1.27.64.64 0 0 1 0-1.27zm2.1 14.86 2.19-1.95.6 2.84-2.79-.89z"/>
      <path fill="var(--color1, #4d5ae5)" d="M15.35 3.19v1.27a.64.64 0 0 0 1.28 0V3.19a.64.64 0 1 0-1.28 0zM3.88 14.66a.64.64 0 1 0 0 1.28h1.27c.35 0 .64-.29.64-.64a.64.64 0 0 0-.64-.64H3.88zm24.22 1.28a.64.64 0 1 0 0-1.28h-1.27a.64.64 0 0 0 0 1.28h1.28z"/>
    </symbol>
    <symbol id="antenna" viewBox="0 0 32 32">
      <path fill="var(--color2, #2e2f42)" d="m30.77 22.1-8.45-8.51.94-4.62c.24.1.5.15.76.15h.01a2.16 2.16 0 1 0-2.01-1.44l-4.96.61L8.97.16a.53.53 0 0 0-.75 0l-1.51 1.5a.53.53 0 0 0 0 .75l.81.82a14.95 14.95 0 0 0 2.52 17.67l.14.1c-.03.17-.05.36-.05.54v6.19h-6.4a2.67 2.67 0 0 0-2.66 2.67v1.06c0 .3.23.54.53.54h24.53c.3 0 .54-.24.54-.54V30.4c0-1.48-1.2-2.67-2.67-2.67h-6.4v-2.74a14.86 14.86 0 0 0 10.09-1.46l.82.82c.1.1.23.15.38.16.14 0 .27-.06.37-.16l1.51-1.5a.53.53 0 0 0 0-.76zm-7.5-15.87a1.07 1.07 0 1 1 .76 1.82 1.07 1.07 0 0 1-.75-1.82zm-1.25 3.5-.6 2.95-1.17-1.18 1.77-1.76zm-.6-.9-1.93 1.91-1.48-1.49 3.4-.41zM24 28.8c.89 0 1.6.71 1.6 1.6v.53H2.14v-.53c0-.88.71-1.6 1.6-1.6H24zm-7.46-2.14v1.07H11.2v-1.06h5.33zM11.2 25.6v-4.05c0-1.3 1.2-2.35 2.67-2.35s2.67 1.05 2.67 2.35v4.05H11.2zm6.4-1.7v-2.35c0-1.89-1.68-3.42-3.73-3.42a3.82 3.82 0 0 0-3.28 1.78A13.87 13.87 0 0 1 8.3 4.03l18.6 18.71a13.82 13.82 0 0 1-9.31 1.16zm11.29-.68-.75-.76L7.84 2.03l.75-.75 7.94 7.98v.01l13.12 13.2-.76.75z"/>
      <path fill="var(--color1, #4d5ae5)" d="M13.88 20.27h-.01a1.6 1.6 0 1 0 0 3.2 1.6 1.6 0 0 0 0-3.2zm.36 1.97c-.1.1-.23.16-.37.16a.54.54 0 0 1 0-1.07.53.53 0 0 1 .37.91z"/>
    </symbol>
    <symbol id="astronaut" viewBox="0 0 32 32">
      <path fill="var(--color1, #4d5ae5)" d="M31.97 4.52a.53.53 0 0 0-.43-.36l-1.91-.28-.85-1.73c-.19-.37-.78-.37-.96 0l-.85 1.73-1.91.28a.53.53 0 0 0-.3.91l1.38 1.34-.33 1.91a.54.54 0 0 0 .78.56l1.7-.9 1.72.9a.53.53 0 0 0 .57-.04.53.53 0 0 0 .2-.52l-.32-1.9 1.38-1.35c.14-.15.2-.36.13-.55zm-2.46 1.33a.53.53 0 0 0-.15.47l.19 1.11-1-.52a.53.53 0 0 0-.25-.06.52.52 0 0 0-.25.06l-1 .52.19-1.11a.53.53 0 0 0-.15-.47l-.81-.79 1.12-.17a.53.53 0 0 0 .4-.29l.5-1.01.5 1.01c.08.16.23.27.4.3l1.12.16-.81.79zm-4.44 14.67h1.06v1.06h-1.06v-1.06zm0 2.14h1.06v1.06h-1.06v-1.06zm1.06-1.07h1.07v1.07h-1.07v-1.07zm-2.13 0h1.06v1.07H24v-1.07zm-2.67 4.8h1.07v1.07h-1.07v-1.07zm0 2.13h1.07v1.06h-1.07v-1.06zm1.07-1.07h1.06v1.07H22.4v-1.06zm-2.13 0h1.06v1.07h-1.06v-1.06zm-5.34-3.2H16v1.07h-1.07v-1.06zm0 2.14H16v1.07h-1.07v-1.07zM16 25.32h1.06v1.06H16v-1.06zm-2.13 0h1.06v1.06h-1.06v-1.06zM4.8 6.12h1.07v1.06H4.8V6.13zm0 2.14h1.07v1.06H4.8V8.26zm1.07-1.08h1.06v1.07H5.87V7.18zm-2.14 0h1.06v1.07H3.73V7.18z"/>
      <path fill="var(--color2, #2e2f42)" d="M24.64 14.17c-.28-.39-.7-.64-1.18-.7s-.95.06-1.33.35l-1.25.95-1.9 1.4-1.35-.53a6.87 6.87 0 0 0 4.1-6.26c0-3.8-3.11-6.88-6.94-6.88S7.84 5.58 7.84 9.38c0 1.36.42 2.64 1.12 3.72l-2.76-.03-.02.01c-.06 0-.1.01-.16.03l-.04.01-.02.01-3.22 1.58-1.89.91-.06.03a1.76 1.76 0 0 0 1 3.24c.28 0 .57-.07.83-.2L4 17.95l2.26-1.16h1.35L2.2 22.16.85 23.48a1.65 1.65 0 0 0 1.18 2.82c.42 0 .85-.16 1.17-.48l1.31-1.3 1.74-1.3.9.9-1.76 1.74-1.33 1.32a1.6 1.6 0 0 0-.49 1.17 1.67 1.67 0 0 0 2.84 1.17l3.47-3.44 1.01-1 .02-.01 5.15-5.61 3.46.49h.08a.4.4 0 0 0 .18-.04l.05-.02.06-.03 3.2-2.11.03-.03.04-.03 1.27-1.18c.66-.61.75-1.62.21-2.34zM2.13 17.75a.71.71 0 0 1-.55.05.71.71 0 0 1-.43-.35.7.7 0 0 1 .22-.9l1.3-.63.32.92.13.39-.99.52zm3.49-1.81-1.54.79-.26-.74-.18-.53 2.02-1-.04 1.48zm15.06-6.57a5.7 5.7 0 0 1-.6 2.54l-4.17-1.89a1.84 1.84 0 0 0-.79-1.37l1.47-4.82a5.84 5.84 0 0 1 4.09 5.54zm-11.76 0a5.86 5.86 0 0 1 6.62-5.77L14.1 8.32h-.05c-1.03 0-1.87.82-1.87 1.84a1.86 1.86 0 0 0 3.48.92l3.85 1.74a5.89 5.89 0 0 1-10.6-3.45zm5.94.8a.8.8 0 0 1-.8.79.8.8 0 0 1-.8-.8.8.8 0 0 1 1.6 0zm-12.4 14.9a.61.61 0 0 1-.85 0 .6.6 0 0 1 0-.84l.97-.95.84.83-.95.95zm3.21 3.7a.6.6 0 0 1-1.02-.43c0-.15.06-.3.17-.41l.96-.95.85.84-.96.94zm3.47-3.45-1.76 1.75-.4-.4-.45-.44 1.76-1.74a.49.49 0 0 0 .09-.13l.03-.04.02-.13.01-.07a.39.39 0 0 0-.02-.11l-.01-.1a.56.56 0 0 0-.1-.13c0-.01 0-.03-.02-.04l-1.6-1.58-.06-.04-.09-.06-.09-.03-.1-.02h-.1a.65.65 0 0 0-.1.02l-.1.04-.06.04-1.77 1.31-.9-.89 2.4-2.37 4.35 4.26-.93.9zm6.8-6.95h-.04l-.12.01-.08.02-.1.05-.09.06-.04.03-4.68 5.1-4.31-4.22 2.82-2.8a.52.52 0 0 0 0-.74.53.53 0 0 0-.38-.16l-2.21.01.03-1.59 3.09.03a6.98 6.98 0 0 0 6.24 1.96l.13.08 2.41.95.15.76.18.87-3-.42zm4.04.18L19.64 17l1.45-1.07.37.5.57.75-2.08 1.37zm3.74-2.81-.84.78-.93-1.23.83-.63a.73.73 0 0 1 .54-.14c.2.03.36.13.48.28a.7.7 0 0 1-.08.94z"/>
      <path fill="var(--color2, #2e2f42)" d="m13.6 18.54-2.15-2.13a.53.53 0 0 0-.74 0l-2.15 2.13a.54.54 0 0 0 0 .76l2.15 2.13c.1.1.23.15.37.15s.28-.05.38-.15l2.14-2.13a.54.54 0 0 0 0-.76zm-2.52 1.76-1.39-1.38 1.39-1.38 1.39 1.38-1.39 1.38zm6.08-15.23L16.9 6.1c.08.02 1.74.46 1.74 2.16h1.07c0-2.02-1.67-2.97-2.55-3.19zm1.48 4.25h1.07v1.06h-1.07V9.32z"/>
    </symbol>
  </defs>
</svg>